<svg height="512" width="512" xmlns="http://www.w3.org/2000/svg"><g fill-rule="evenodd" clip-rule="evenodd"><path d="M434.639 16.01h-356.9c-33.875 0-61.553 27.677-61.553 61.54v356.913c0 33.851 27.678 61.527 61.553 61.527h356.9c33.5 0 61.176-27.677 61.176-61.527V77.55c-.001-33.863-27.676-61.54-61.176-61.54zM327.191 230.879l-2.184 25.131h-48.076v159.859h-63.718V256.01h-32.056v-64.1h32.056v-28.77c0-26.222 12.384-67.374 67.38-67.374l49.508.364v54.99h-36.033c-5.846 0-14.201 2.911-14.201 15.294v25.495h50.963l-3.639 38.97z" fill="#44566a"/><path d="M213.214 415.869h63.718V256.01h48.076l2.184-25.131 3.639-38.969h-50.963v-25.495c0-12.383 8.355-15.294 14.201-15.294h36.033v-54.99l-49.508-.364c-54.996 0-67.38 41.152-67.38 67.374v28.77h-32.056v64.1h32.056v159.858z" fill="#e9d9a8"/></g></svg>