<svg height="512" width="512" xmlns="http://www.w3.org/2000/svg"><g fill-rule="evenodd" clip-rule="evenodd"><path d="M434.457 16.01H77.556c-33.875 0-61.553 27.677-61.553 61.54v356.888c0 33.876 27.678 61.553 61.553 61.553h356.901c33.863 0 61.54-27.677 61.54-61.553V77.55c0-33.863-27.677-61.54-61.54-61.54zm-50.988 175.536v8.381c0 12.747-1.455 26.222-4.366 38.957-16.763 73.93-79.771 144.941-182.456 144.941-37.162 0-71.753-10.563-100.886-28.756 5.106.352 10.564.728 15.658.728 30.952 0 59.356-10.213 81.576-27.677-28.769-.377-52.808-19.322-61.188-44.816a68.379 68.379 0 0 0 12.396 1.104c5.821 0 11.644-.728 17.113-2.184-21.855-4.366-40.061-19.673-48.077-40.066-2.547-7.277-4.366-15.281-4.366-23.299v-1.092c9.108 5.094 18.944 8.005 29.86 8.381-17.842-11.668-29.497-31.691-29.497-53.898 0-12.02 3.274-22.96 9.097-32.784 32.42 39.333 80.849 65.191 135.125 67.738-1.104-4.743-1.456-9.837-1.456-14.566 0-36.059 29.49-64.827 65.549-64.827 18.944 0 36.058 7.653 48.077 20.4 14.931-2.911 29.133-8.381 41.881-15.658-5.094 14.931-15.658 27.678-29.133 35.682 13.475-1.455 25.846-5.094 37.865-10.188-8.733 13.099-20.025 24.391-32.772 33.499z" fill="#1f7189"/><path d="M196.646 383.825c102.686 0 165.693-71.012 182.456-144.941 2.911-12.735 4.366-26.21 4.366-38.957v-8.381c12.747-9.108 24.039-20.4 32.771-33.499-12.02 5.094-24.391 8.732-37.865 10.188 13.475-8.004 24.039-20.751 29.133-35.682-12.748 7.277-26.95 12.747-41.881 15.658-12.02-12.747-29.133-20.4-48.077-20.4-36.059 0-65.549 28.769-65.549 64.827 0 4.729.352 9.823 1.456 14.566-54.276-2.547-102.705-28.405-135.125-67.738-5.822 9.824-9.097 20.765-9.097 32.784 0 22.207 11.655 42.23 29.497 53.898-10.916-.376-20.752-3.287-29.86-8.381v1.092c0 8.018 1.819 16.021 4.366 23.299 8.017 20.394 26.222 35.7 48.077 40.066-5.47 1.456-11.292 2.184-17.113 2.184-4.366 0-8.381-.377-12.396-1.104 8.381 25.494 32.42 44.439 61.188 44.816-22.22 17.464-50.624 27.677-81.576 27.677-5.094 0-10.552-.376-15.658-.728 29.135 18.193 63.725 28.756 100.887 28.756z" fill="#e9d9a8"/></g></svg>