<svg height="512" width="512" xmlns="http://www.w3.org/2000/svg"><g fill-rule="evenodd" clip-rule="evenodd"><path fill="#c45359" d="M223.054 205.385v93.953l86.306-46.98-47.338-25.858z"/><path d="M434.271 16.01H77.377c-33.512 0-61.188 27.677-61.188 61.54v356.913c0 33.851 27.677 61.527 61.188 61.527h356.895c33.863 0 61.54-27.677 61.54-61.527V77.55c0-33.863-27.677-61.54-61.541-61.54zm-18.204 231.982v20.382c0 27.326-3.287 54.275-3.287 54.275s-2.911 22.935-12.748 33.147c-12.007 13.099-25.846 13.475-32.043 14.202-44.791 3.263-112.165 3.263-112.165 3.263s-83.032-.728-108.89-3.263c-6.914-1.455-22.947-1.104-35.318-14.202-9.473-10.213-12.396-33.147-12.396-33.147s-3.262-26.949-3.262-54.275v-25.112c0-26.949 3.262-54.263 3.262-54.263s2.924-22.947 12.748-33.147c12.02-13.111 25.494-13.111 32.056-13.839 44.79-3.274 111.801-2.911 111.801-2.911h.364s67.01-.363 111.801 2.911c6.562.728 20.036.728 32.043 14.202 9.837 10.2 12.748 33.148 12.748 33.148s3.287 26.949 3.287 53.898v4.731z" fill="#c45359"/><path d="M255.824 139.102s-67.011-.363-111.801 2.911c-6.562.728-20.036.728-32.056 13.839-9.824 10.2-12.748 33.147-12.748 33.147s-3.262 27.313-3.262 54.263v25.112c0 27.326 3.262 54.275 3.262 54.275s2.924 22.935 12.396 33.147c12.371 13.099 28.404 12.747 35.318 14.202 25.857 2.535 108.89 3.263 108.89 3.263s67.374 0 112.165-3.263c6.197-.728 20.036-1.104 32.043-14.202 9.837-10.213 12.748-33.147 12.748-33.147s3.287-26.949 3.287-54.275v-25.112c0-26.949-3.287-53.898-3.287-53.898s-2.911-22.948-12.748-33.148c-12.007-13.475-25.481-13.475-32.043-14.202-44.791-3.274-111.801-2.911-111.801-2.911h-.363zm-32.77 88.126v-21.843l38.969 21.115 47.338 25.858-86.307 46.979v-72.109z" fill="#e9d9a8"/></g></svg>