<?xml version="1.0" ?><!DOCTYPE svg  PUBLIC '-//W3C//DTD SVG 1.1//EN'  'http://www.w3.org/Graphics/SVG/1.1/DTD/svg11.dtd'><svg height="512px" style="enable-background:new 0 0 512 512;" version="1.1" viewBox="0 0 512 512" width="512px" xml:space="preserve" xmlns="http://www.w3.org/2000/svg" xmlns:xlink="http://www.w3.org/1999/xlink"><g id="social__x2C__media__x2C___twitter__x2C_"><g><path d="M434.457,16.01H77.556c-33.875,0-61.553,27.677-61.553,61.54    v356.888c0,33.876,27.678,61.553,61.553,61.553h356.901c33.863,0,61.54-27.677,61.54-61.553V77.55    C495.997,43.687,468.32,16.01,434.457,16.01L434.457,16.01z M383.469,191.546c0,2.911,0,5.458,0,8.381    c0,12.747-1.455,26.222-4.366,38.957c-16.763,73.93-79.771,144.941-182.456,144.941c-37.162,0-71.753-10.563-100.886-28.756    c5.106,0.352,10.564,0.728,15.658,0.728c30.952,0,59.356-10.213,81.576-27.677c-28.769-0.377-52.808-19.322-61.188-44.816    c4.015,0.728,8.029,1.104,12.396,1.104c5.821,0,11.644-0.728,17.113-2.184c-21.855-4.366-40.061-19.673-48.077-40.066    c-2.547-7.277-4.366-15.281-4.366-23.299c0-0.364,0-0.728,0-1.092c9.108,5.094,18.944,8.005,29.86,8.381    c-17.842-11.668-29.497-31.691-29.497-53.898c0-12.02,3.274-22.96,9.097-32.784c32.42,39.333,80.849,65.191,135.125,67.738    c-1.104-4.743-1.456-9.837-1.456-14.566c0-36.059,29.49-64.827,65.549-64.827c18.944,0,36.058,7.653,48.077,20.4    c14.931-2.911,29.133-8.381,41.881-15.658c-5.094,14.931-15.658,27.678-29.133,35.682c13.475-1.455,25.846-5.094,37.865-10.188    C407.508,171.146,396.216,182.438,383.469,191.546L383.469,191.546z" style="fill-rule:evenodd;clip-rule:evenodd;fill:#1F7189;"/><path d="M196.646,383.825c102.686,0,165.693-71.012,182.456-144.941    c2.911-12.735,4.366-26.21,4.366-38.957v-8.381c12.747-9.108,24.039-20.4,32.771-33.499c-12.02,5.094-24.391,8.732-37.865,10.188    c13.475-8.004,24.039-20.751,29.133-35.682c-12.748,7.277-26.95,12.747-41.881,15.658c-12.02-12.747-29.133-20.4-48.077-20.4    c-36.059,0-65.549,28.769-65.549,64.827c0,4.729,0.352,9.823,1.456,14.566c-54.276-2.547-102.705-28.405-135.125-67.738    c-5.822,9.824-9.097,20.765-9.097,32.784c0,22.207,11.655,42.23,29.497,53.898c-10.916-0.376-20.752-3.287-29.86-8.381v1.092    c0,8.018,1.819,16.021,4.366,23.299c8.017,20.394,26.222,35.7,48.077,40.066c-5.47,1.456-11.292,2.184-17.113,2.184    c-4.366,0-8.381-0.377-12.396-1.104c8.381,25.494,32.42,44.439,61.188,44.816c-22.22,17.464-50.624,27.677-81.576,27.677    c-5.094,0-10.552-0.376-15.658-0.728C124.894,373.262,159.484,383.825,196.646,383.825L196.646,383.825z" style="fill-rule:evenodd;clip-rule:evenodd;fill:#E9D9A8;"/></g></g><g id="Layer_1"/></svg>