<?xml version="1.0" ?><!DOCTYPE svg  PUBLIC '-//W3C//DTD SVG 1.1//EN'  'http://www.w3.org/Graphics/SVG/1.1/DTD/svg11.dtd'><svg height="512px" style="enable-background:new 0 0 512 512;" version="1.1" viewBox="0 0 512 512" width="512px" xml:space="preserve" xmlns="http://www.w3.org/2000/svg" xmlns:xlink="http://www.w3.org/1999/xlink"><g id="social__x2C__media__x2C___facebook__x2C_"><g><path d="M434.639,16.01h-356.9c-33.875,0-61.553,27.677-61.553,61.54    v356.913c0,33.851,27.678,61.527,61.553,61.527h356.9c33.5,0,61.176-27.677,61.176-61.527V77.55    C495.814,43.687,468.139,16.01,434.639,16.01L434.639,16.01z M327.191,230.879l-2.184,25.131h-48.076c0,72.11,0,159.859,0,159.859    h-63.718c0,0,0-86.671,0-159.859h-32.056v-25.131V191.91h32.056v-28.77c0-26.222,12.384-67.374,67.38-67.374l49.508,0.364v54.99    c0,0-30.211,0-36.033,0c-5.846,0-14.201,2.911-14.201,15.294v25.495h50.963L327.191,230.879z" style="fill-rule:evenodd;clip-rule:evenodd;fill:#44566A;"/><path d="M213.214,415.869h63.718V256.01h48.076l2.184-25.131    l3.639-38.969h-50.963v-25.495c0-12.383,8.355-15.294,14.201-15.294h36.033v-54.99l-49.508-0.364    c-54.996,0-67.38,41.152-67.38,67.374v28.77h-32.056v38.969v25.131h32.056V415.869z" style="fill-rule:evenodd;clip-rule:evenodd;fill:#E9D9A8;"/></g></g><g id="Layer_1"/></svg>