<?xml version="1.0" ?><!DOCTYPE svg  PUBLIC '-//W3C//DTD SVG 1.1//EN'  'http://www.w3.org/Graphics/SVG/1.1/DTD/svg11.dtd'><svg height="512px" style="enable-background:new 0 0 512 512;" version="1.1" viewBox="0 0 512 512" width="512px" xml:space="preserve" xmlns="http://www.w3.org/2000/svg" xmlns:xlink="http://www.w3.org/1999/xlink"><g id="social__x2C__media__x2C__youtube__x2C_"><g><polygon points="223.054,205.385 223.054,227.228 223.054,299.338     309.36,252.358 262.022,226.5   " style="fill-rule:evenodd;clip-rule:evenodd;fill:#C45359;"/><path d="M434.271,16.01H77.377c-33.512,0-61.188,27.677-61.188,61.54    v356.913c0,33.851,27.677,61.527,61.188,61.527h356.895c33.863,0,61.54-27.677,61.54-61.527V77.55    C495.812,43.687,468.135,16.01,434.271,16.01L434.271,16.01z M416.067,247.992v20.382c0,27.326-3.287,54.275-3.287,54.275    s-2.911,22.935-12.748,33.147c-12.007,13.099-25.846,13.475-32.043,14.202c-44.791,3.263-112.165,3.263-112.165,3.263    s-83.032-0.728-108.89-3.263c-6.914-1.455-22.947-1.104-35.318-14.202c-9.473-10.213-12.396-33.147-12.396-33.147    s-3.262-26.949-3.262-54.275v-21.837v-3.275c0-26.949,3.262-54.263,3.262-54.263s2.924-22.947,12.748-33.147    c12.02-13.111,25.494-13.111,32.056-13.839c44.79-3.274,111.801-2.911,111.801-2.911h0.364c0,0,67.01-0.363,111.801,2.911    c6.562,0.728,20.036,0.728,32.043,14.202c9.837,10.2,12.748,33.148,12.748,33.148s3.287,26.949,3.287,53.898V247.992z" style="fill-rule:evenodd;clip-rule:evenodd;fill:#C45359;"/><path d="M255.824,139.102c0,0-67.011-0.363-111.801,2.911    c-6.562,0.728-20.036,0.728-32.056,13.839c-9.824,10.2-12.748,33.147-12.748,33.147s-3.262,27.313-3.262,54.263v3.275v21.837    c0,27.326,3.262,54.275,3.262,54.275s2.924,22.935,12.396,33.147c12.371,13.099,28.404,12.747,35.318,14.202    c25.857,2.535,108.89,3.263,108.89,3.263s67.374,0,112.165-3.263c6.197-0.728,20.036-1.104,32.043-14.202    c9.837-10.213,12.748-33.147,12.748-33.147s3.287-26.949,3.287-54.275v-20.382v-4.73c0-26.949-3.287-53.898-3.287-53.898    s-2.911-22.948-12.748-33.148c-12.007-13.475-25.481-13.475-32.043-14.202c-44.791-3.274-111.801-2.911-111.801-2.911H255.824z     M223.054,227.228v-21.843l38.969,21.115l47.338,25.858l-86.307,46.979V227.228z" style="fill-rule:evenodd;clip-rule:evenodd;fill:#E9D9A8;"/></g></g><g id="Layer_1"/></svg>